<svg xmlns="http://www.w3.org/2000/svg" 
    xmlns:xlink="http://www.w3.org/1999/xlink" viewBox="0 0 64 64" version="1.1">
    <g id="surface1">
        <path style=" fill:#FAEFDE;" d="M 46.800781 3.238281 L 45 3.640625 C 36.4375 5.539063 27.5625 5.539063 19 3.640625 L 17.21875 3.238281 C 14.570313 2.652344 11.800781 3.421875 9.832031 5.292969 C 7.867188 7.164063 6.960938 9.894531 7.421875 12.570313 C 7.929688 15.570313 9.128906 20.339844 10.289063 24.699219 C 12.191406 31.859375 13.199219 39.222656 13.289063 46.628906 C 13.214844 50.691406 13.773438 54.742188 14.949219 58.628906 L 15.660156 60.421875 C 15.933594 61.109375 16.566406 61.59375 17.304688 61.671875 C 18.042969 61.753906 18.765625 61.417969 19.179688 60.800781 L 20.859375 58.308594 C 23.652344 53.425781 25.84375 48.21875 27.390625 42.808594 L 28.128906 40 C 28.515625 38.542969 29.667969 37.417969 31.128906 37.058594 C 33.179688 36.621094 35.222656 37.835938 35.808594 39.851563 L 36.660156 42.851563 C 38.207031 48.261719 40.398438 53.464844 43.191406 58.351563 L 44.871094 60.839844 C 45.285156 61.457031 46.007813 61.792969 46.746094 61.714844 C 47.484375 61.632813 48.117188 61.152344 48.390625 60.460938 L 49.101563 58.671875 C 50.273438 54.78125 50.835938 50.730469 50.761719 46.671875 C 50.851563 39.265625 51.855469 31.898438 53.761719 24.738281 C 54.921875 20.378906 56.109375 15.601563 56.628906 12.609375 C 57.105469 9.921875 56.203125 7.171875 54.226563 5.289063 C 52.25 3.402344 49.464844 2.636719 46.800781 3.238281 Z "></path>
        <path style=" fill:#FFF7F0;" d="M 55.828125 16.261719 L 55.558594 7.050781 C 54.535156 5.324219 52.914063 4.03125 51 3.421875 L 13 41.421875 C 13.121094 43.171875 13.191406 44.925781 13.21875 46.679688 C 13.21875 48.480469 13.320313 50.269531 13.5 52.039063 L 24 52.039063 C 25.316406 49.074219 26.425781 46.019531 27.320313 42.898438 L 28.128906 40 C 28.515625 38.542969 29.667969 37.417969 31.128906 37.058594 C 33.179688 36.621094 35.222656 37.835938 35.808594 39.851563 L 36.320313 41.628906 L 53.878906 24.121094 C 54.578125 21.449219 55.289063 18.679688 55.828125 16.261719 Z "></path>
        <path style=" fill:#FFF7F0;" d="M 12.648438 37.351563 L 46.75 3.25 L 45 3.640625 C 43.140625 4.050781 41.269531 4.359375 39.390625 4.640625 L 11.890625 32.109375 C 12.195313 33.851563 12.449219 35.597656 12.648438 37.351563 Z "></path>
        <path style=" fill:#FFF7F0;" d="M 33 5 L 11.851563 26.148438 L 11.851563 29.148438 L 36.089844 4.910156 C 35.042969 4.96875 34.011719 5 33 5 Z "></path>
        <path style=" fill:#EFD8BE;" d="M 17.199219 8.238281 L 18.980469 8.640625 C 27.542969 10.539063 36.417969 10.539063 44.980469 8.640625 L 46.761719 8.238281 C 51.109375 7.238281 52.410156 1.980469 46.761719 3.238281 L 45 3.640625 C 36.4375 5.539063 27.5625 5.539063 19 3.640625 L 17.21875 3.238281 C 11.550781 2 12.851563 7.28125 17.199219 8.238281 Z "></path>
        <path style=" fill:#BBDEF9;" d="M 11.070313 28 C 12.4375 34.121094 13.160156 40.367188 13.230469 46.640625 C 13.15625 50.703125 13.714844 54.75 14.890625 58.640625 L 15.601563 60.429688 C 15.875 61.121094 16.507813 61.601563 17.246094 61.683594 C 17.984375 61.761719 18.707031 61.425781 19.121094 60.808594 L 20.800781 58.320313 C 23.589844 53.433594 25.785156 48.230469 27.328125 42.820313 L 28.128906 40 C 28.515625 38.542969 29.667969 37.417969 31.128906 37.058594 C 33.179688 36.621094 35.222656 37.835938 35.808594 39.851563 L 36.660156 42.851563 C 38.207031 48.261719 40.398438 53.464844 43.191406 58.351563 L 44.871094 60.839844 C 45.285156 61.457031 46.007813 61.792969 46.746094 61.714844 C 47.484375 61.632813 48.117188 61.152344 48.390625 60.460938 L 49.101563 58.671875 C 50.273438 54.78125 50.835938 50.730469 50.761719 46.671875 C 50.832031 40.386719 51.558594 34.128906 52.929688 28 Z "></path>
        <path style=" fill:#8D6C9F;" d="M 54.871094 4.570313 C 52.664063 2.464844 49.554688 1.597656 46.578125 2.261719 L 44.800781 2.660156 C 36.367188 4.523438 27.632813 4.523438 19.199219 2.660156 L 17.421875 2.261719 C 14.445313 1.601563 11.335938 2.464844 9.125 4.566406 C 6.917969 6.671875 5.90625 9.734375 6.421875 12.738281 C 6.859375 15.300781 7.828125 19.410156 9.308594 25 C 11.179688 32.082031 12.164063 39.367188 12.238281 46.691406 C 12.1875 50.859375 12.78125 55.011719 14 59 L 14.710938 60.789063 C 15.121094 61.828125 16.070313 62.550781 17.179688 62.671875 L 17.511719 62.671875 C 18.507813 62.667969 19.445313 62.171875 20 61.339844 L 21.71875 58.78125 C 24.550781 53.824219 26.773438 48.546875 28.339844 43.058594 L 29.148438 40.230469 C 29.4375 39.128906 30.300781 38.273438 31.398438 37.988281 C 32.9375 37.660156 34.46875 38.570313 34.910156 40.078125 L 35.761719 43.078125 C 37.335938 48.589844 39.574219 53.886719 42.421875 58.859375 L 44.101563 61.351563 C 44.722656 62.273438 45.804688 62.777344 46.914063 62.660156 C 48.019531 62.539063 48.96875 61.816406 49.378906 60.78125 L 50.058594 59 C 51.265625 54.996094 51.84375 50.832031 51.769531 46.648438 C 51.847656 39.339844 52.828125 32.070313 54.691406 25 C 56.171875 19.449219 57.140625 15.339844 57.578125 12.78125 C 58.113281 9.761719 57.09375 6.679688 54.871094 4.570313 Z M 55.601563 12.398438 C 55.171875 14.898438 54.210938 18.949219 52.75 24.398438 C 52.609375 24.941406 52.480469 25.480469 52.351563 26.019531 C 52.234375 25.992188 52.117188 25.984375 52 26 C 51.449219 26 51 26.449219 51 27 L 51 29 C 51.003906 29.351563 51.195313 29.675781 51.5 29.851563 C 50.40625 35.375 49.824219 40.988281 49.761719 46.621094 C 49.832031 50.574219 49.296875 54.519531 48.171875 58.308594 L 47.460938 60.101563 C 47.324219 60.445313 47.007813 60.6875 46.640625 60.730469 C 46.269531 60.769531 45.90625 60.601563 45.699219 60.289063 L 44.058594 57.859375 C 41.308594 53.042969 39.144531 47.914063 37.621094 42.578125 L 36.769531 39.578125 C 36.039063 37.058594 33.488281 35.53125 30.921875 36.078125 C 29.089844 36.503906 27.644531 37.90625 27.160156 39.71875 L 26.351563 42.550781 C 24.851563 47.867188 22.71875 52.988281 20 57.800781 L 18.320313 60.289063 C 18.113281 60.597656 17.75 60.765625 17.382813 60.726563 C 17.011719 60.6875 16.695313 60.445313 16.558594 60.101563 L 15.871094 58.359375 C 14.734375 54.550781 14.195313 50.59375 14.269531 46.621094 C 14.195313 40.988281 13.605469 35.375 12.5 29.851563 C 12.804688 29.675781 12.996094 29.351563 13 29 L 13 27 C 13 26.449219 12.550781 26 12 26 C 11.878906 26.003906 11.761719 26.027344 11.648438 26.070313 C 11.519531 25.53125 11.390625 24.980469 11.25 24.449219 C 9.789063 18.960938 8.828125 14.910156 8.398438 12.449219 C 8.046875 10.382813 8.621094 8.261719 9.96875 6.652344 C 11.316406 5.042969 13.300781 4.105469 15.398438 4.089844 C 15.9375 4.089844 16.476563 4.152344 17 4.269531 L 18.78125 4.671875 C 27.496094 6.589844 36.523438 6.589844 45.238281 4.671875 L 47 4.21875 C 49.324219 3.707031 51.75 4.382813 53.472656 6.023438 C 55.195313 7.664063 55.988281 10.054688 55.589844 12.398438 Z "></path>
        <path style=" fill:#8D6C9F;" d="M 37.371094 8.820313 C 31.289063 9.378906 25.160156 8.988281 19.199219 7.660156 C 18.648438 7.542969 18.105469 7.894531 17.984375 8.445313 C 17.867188 8.996094 18.21875 9.542969 18.769531 9.660156 C 23.117188 10.609375 27.550781 11.082031 32 11.070313 C 33.851563 11.070313 35.707031 10.988281 37.558594 10.820313 C 38.113281 10.769531 38.519531 10.28125 38.46875 9.730469 C 38.421875 9.175781 37.933594 8.769531 37.378906 8.820313 Z "></path>
        <path style=" fill:#8D6C9F;" d="M 44.800781 7.660156 C 43.800781 7.878906 42.800781 8.070313 41.800781 8.238281 C 41.246094 8.285156 40.839844 8.773438 40.886719 9.324219 C 40.933594 9.878906 41.417969 10.285156 41.96875 10.238281 L 42.140625 10.238281 C 43.140625 10.070313 44.191406 9.871094 45.210938 9.640625 C 45.761719 9.519531 46.113281 8.976563 45.996094 8.425781 C 45.875 7.871094 45.332031 7.519531 44.78125 7.640625 Z "></path>
        <path style=" fill:#8D6C9F;" d="M 17 26 C 16.449219 26 16 26.449219 16 27 L 16 29 C 16 29.550781 16.449219 30 17 30 C 17.550781 30 18 29.550781 18 29 L 18 27 C 18 26.449219 17.550781 26 17 26 Z "></path>
        <path style=" fill:#8D6C9F;" d="M 22 26 C 21.449219 26 21 26.449219 21 27 L 21 29 C 21 29.550781 21.449219 30 22 30 C 22.550781 30 23 29.550781 23 29 L 23 27 C 23 26.449219 22.550781 26 22 26 Z "></path>
        <path style=" fill:#8D6C9F;" d="M 27 26 C 26.449219 26 26 26.449219 26 27 L 26 29 C 26 29.550781 26.449219 30 27 30 C 27.550781 30 28 29.550781 28 29 L 28 27 C 28 26.449219 27.550781 26 27 26 Z "></path>
        <path style=" fill:#8D6C9F;" d="M 32 26 C 31.449219 26 31 26.449219 31 27 L 31 29 C 31 29.550781 31.449219 30 32 30 C 32.550781 30 33 29.550781 33 29 L 33 27 C 33 26.449219 32.550781 26 32 26 Z "></path>
        <path style=" fill:#8D6C9F;" d="M 37 26 C 36.449219 26 36 26.449219 36 27 L 36 29 C 36 29.550781 36.449219 30 37 30 C 37.550781 30 38 29.550781 38 29 L 38 27 C 38 26.449219 37.550781 26 37 26 Z "></path>
        <path style=" fill:#8D6C9F;" d="M 42 26 C 41.449219 26 41 26.449219 41 27 L 41 29 C 41 29.550781 41.449219 30 42 30 C 42.550781 30 43 29.550781 43 29 L 43 27 C 43 26.449219 42.550781 26 42 26 Z "></path>
        <path style=" fill:#8D6C9F;" d="M 47 26 C 46.449219 26 46 26.449219 46 27 L 46 29 C 46 29.550781 46.449219 30 47 30 C 47.550781 30 48 29.550781 48 29 L 48 27 C 48 26.449219 47.550781 26 47 26 Z "></path>
        <path style=" fill:#FFFFFF;" d="M 18.5 15 L 19.738281 17.261719 L 22 18.5 L 19.738281 19.738281 L 18.5 22 L 17.261719 19.738281 L 15 18.5 L 17.261719 17.261719 Z "></path>
        <path style=" fill:#FFFFFF;" d="M 38.421875 15 L 39.269531 16.558594 L 40.839844 17.421875 L 39.269531 18.269531 L 38.421875 19.839844 L 37.558594 18.269531 L 36 17.421875 L 37.558594 16.558594 Z "></path>
        <path style=" fill:#FFFFFF;" d="M 41.648438 36 L 42.230469 37.058594 L 43.300781 37.648438 L 42.230469 38.230469 L 41.648438 39.300781 L 41.058594 38.230469 L 40 37.648438 L 41.058594 37.058594 Z "></path>
    </g>
</svg>