<svg width="512" height="480" 
    xmlns="http://www.w3.org/2000/svg">

    <g>
        <title>background</title>
        <rect fill="white" id="canvas_background" height="482" width="514" y="-1" x="-1"/>
    </g>
    <g>
        <title>Layer 1</title>
        <g id="surface1">
            <path style="fill:#FAEFDE;" id="svg_1" d="m356.249011,36.05613l-12.200309,2.81774c-58.011053,13.295096 -118.139299,13.295096 -176.150352,0l-12.067993,-2.81774c-17.943217,-4.103458 -36.70682,1.285789 -50.045128,14.389417c-13.311818,13.103628 -19.451674,32.225671 -16.328799,50.964709c3.44042,21.009617 11.565151,54.411617 19.425183,84.941251c12.888447,50.144073 19.716373,101.710638 20.325041,153.57813c-0.502842,28.450523 3.281681,56.818969 11.247606,84.038468l4.816628,12.556538c1.852492,4.814704 6.139856,8.206847 11.141713,8.754007c5.001857,0.574473 9.897888,-1.778184 12.70315,-6.100492l11.379922,-17.453319c18.922342,-34.195323 33.769174,-70.661225 44.249307,-108.549688l5.001857,-19.669133c2.620033,-10.203881 10.427152,-18.082487 20.325041,-20.599299c13.894062,-3.063902 27.735212,5.443942 31.704895,19.559743l5.769398,21.009617c10.480065,37.888463 25.326898,74.326983 44.249307,108.549688l11.379855,17.425937c2.80533,4.322309 7.701293,6.674965 12.70315,6.127805c5.001925,-0.574473 9.289221,-3.939303 11.141781,-8.78132l4.81656,-12.529155c7.939503,-27.246882 11.750448,-55.615328 11.247606,-84.038468c0.608667,-51.867492 7.410171,-103.461439 20.325041,-153.605512c7.8601,-30.529565 15.905428,-63.986329 19.425251,-84.941181c3.2287,-18.821115 -2.884665,-38.079931 -16.275954,-51.265707c-13.391221,-13.213088 -32.260717,-18.574883 -50.30976,-14.362034z"/>
            <path style="fill:#FFF7F0;" id="svg_2" d="m417.409429,127.261959l-1.826137,-64.506107c-6.933752,-12.091455 -17.916727,-21.14639 -30.884509,-25.413933l-257.450515,266.121816c0.820386,12.25561 1.296805,24.538532 1.482034,36.821525c0,12.611233 0.68807,25.140388 1.905473,37.53277l71.137642,0c8.918696,-20.763384 16.434692,-42.156007 22.495145,-64.013642l5.478276,-20.298371c2.620033,-10.203881 10.427152,-18.082487 20.325041,-20.599299c13.894062,-3.063902 27.735212,5.443942 31.704895,19.559743l3.46691,12.447148l118.959753,-122.610865c4.737225,-18.711655 9.553785,-38.107243 13.205992,-55.040785z"/>
            <path style="fill:#FFF7F0;" id="svg_3" d="m124.866445,274.958446l231.038531,-238.820239l-11.856274,2.735662c-12.597257,2.872365 -25.273985,5.033554 -38.003558,7.003206l-186.312872,192.369306c2.064211,12.200845 3.784455,24.429142 5.134173,36.712065z"/>
            <path style="fill:#FFF7F0;" id="svg_4" d="m262.74854,48.393818l-143.280967,148.106875l0,21.009617l164.214675,-169.74566c-7.092558,0.410318 -14.079291,0.629168 -20.933708,0.629168z"/>
            <path style="fill:#EFD8BE;" id="svg_5" d="m155.698041,71.072158l12.067993,2.81774c58.011053,13.295096 118.139299,13.295096 176.150352,0l12.067993,-2.81774c29.455455,-7.003206 38.268257,-43.824731 0,-35.016028l-11.935677,2.81774c-58.011053,13.295096 -118.139299,13.295096 -176.150352,0l-12.067993,-2.81774c-38.400574,-8.67193 -29.587771,28.31375 -0.132316,35.016028z"/>
            <path style="fill:#BBDEF9;" id="svg_6" d="m114.174593,209.467548c9.262731,42.867252 14.158762,86.609975 14.635113,130.544166c-0.502842,28.450523 3.281613,56.791586 11.247606,84.038468l4.81656,12.529155c1.85256,4.842016 6.139856,8.206847 11.141713,8.78132c5.001925,0.54716 9.897888,-1.805496 12.70315,-6.127805l11.379922,-17.425937c18.895919,-34.222705 33.769242,-70.661225 44.222885,-108.549688l5.425295,-19.751211c2.620033,-10.203881 10.427152,-18.082487 20.325041,-20.599299c13.894062,-3.063902 27.735212,5.443942 31.704895,19.559743l5.769398,21.009617c10.480065,37.888463 25.326898,74.326983 44.249307,108.549688l11.379855,17.425937c2.80533,4.322309 7.701293,6.674965 12.70315,6.127805c5.001925,-0.574473 9.289221,-3.939303 11.141781,-8.78132l4.81656,-12.529155c7.939503,-27.246882 11.750448,-55.615328 11.247606,-84.038468c0.476351,-44.016268 5.398805,-87.840999 14.688026,-130.763016l-283.597866,0z"/>
            <path style="fill:#8D6C9F;" id="svg_7" d="m410.92547,45.38461c-14.952658,-14.745039 -36.018682,-20.818079 -56.184916,-16.167531l-12.04157,2.790357c-57.137686,13.048933 -116.313229,13.048933 -173.450916,0l-12.041503,-2.790357c-20.166302,-4.623236 -41.232326,1.422491 -56.211474,16.140218c-14.952658,14.745039 -21.807075,36.192357 -18.313675,57.229286c2.964068,17.945715 9.527363,46.724548 19.557499,85.871347c12.676728,49.596913 19.345848,100.616387 19.848689,151.909406c-0.344035,29.189151 3.678629,58.268842 11.935677,86.199587l4.816628,12.529155c2.778772,7.276821 9.20975,12.337688 16.725815,13.185776l2.249508,0c6.748523,-0.027383 13.100098,-3.501603 16.858131,-9.32855l11.644555,-17.918332c19.187042,-34.715101 34.245593,-71.673398 44.857974,-110.109022l5.478276,-19.805906c1.958385,-7.714451 7.807119,-13.705484 15.24378,-15.702518c10.427152,-2.297892 20.801392,4.076076 23.791951,14.635649l5.769331,21.009617c10.665362,38.599639 25.829739,75.694779 45.122674,110.51934l11.379855,17.453249c4.207961,6.456115 11.538729,9.985031 19.054726,9.164395c7.489574,-0.848088 13.920553,-5.908955 16.699392,-13.158393l4.604841,-12.47446c8.177712,-28.040205 12.094483,-57.201974 11.591642,-86.500515c0.529332,-51.183629 7.172029,-102.093643 19.795777,-151.608478c10.030204,-38.873254 16.593499,-67.652087 19.557567,-85.570419c3.625648,-21.14639 -3.281681,-42.73048 -18.340233,-57.502902zm4.948944,54.822005c-2.911088,17.508014 -9.421469,45.87646 -19.319358,84.038468c-0.952702,3.802531 -1.826069,7.577679 -2.699436,11.352827c-0.793896,-0.191468 -1.58786,-0.246163 -2.381824,-0.136773c-3.731542,0 -6.775014,3.14598 -6.775014,7.003206l0,14.006411c0.02649,2.462047 1.323228,4.732626 3.387507,5.96365c-7.410171,38.681786 -11.353432,77.992741 -11.776871,117.440468c0.476351,27.684582 -3.149297,55.3144 -10.771188,81.849966l-4.816628,12.556538c-0.92628,2.407352 -3.069962,4.103458 -5.557611,4.404386c-2.514208,0.273545 -4.975434,-0.902783 -6.378065,-3.091285l-11.11529,-17.015549c-18.631287,-33.73031 -33.292823,-69.649122 -43.61415,-107.017737l-5.769331,-21.009617c-4.948944,-17.644857 -22.230513,-28.341133 -39.617908,-24.51122c-12.412096,2.981825 -22.204091,12.8027 -25.485704,25.496011l-5.478276,19.833289c-10.16252,37.231913 -24.612337,73.095959 -43.031905,106.798887l-11.379922,17.425937c-1.402631,2.161189 -3.863858,3.337518 -6.351575,3.063902c-2.51414,-0.273545 -4.657822,-1.969652 -5.584102,-4.377004l-4.657822,-12.200845c-7.701226,-26.672409 -11.353432,-54.384304 -10.850591,-82.205659c-0.502842,-39.447727 -4.499015,-78.758681 -11.98859,-117.440468c2.064279,-1.231023 3.361016,-3.501603 3.387507,-5.96365l0,-14.006411c0,-3.857226 -3.043472,-7.003206 -6.775014,-7.003206c-0.820386,0.027383 -1.61435,0.191468 -2.381824,0.492395c-0.873367,-3.775148 -1.746666,-7.632374 -2.699436,-11.352827c-9.897888,-38.435554 -16.408202,-66.803999 -19.319358,-84.038468c-2.381824,-14.471494 1.508457,-29.325924 10.638872,-40.596743c9.130415,-11.270749 22.574548,-17.836254 36.786223,-17.945715c3.652139,0 7.304278,0.4377 10.850591,1.258406l12.067993,2.81774c59.043159,13.431868 120.203578,13.431868 179.246737,0l11.935677,-3.173363c15.746622,-3.58368 32.181314,1.148946 43.852359,12.638615c11.670977,11.489599 17.04336,28.231673 14.343923,44.645436l0.079403,0z"/>
            <path style="fill:#8D6C9F;" id="svg_8" d="m292.362733,75.148234c-41.205836,3.911991 -82.729216,1.176328 -123.114665,-8.124769c-3.731542,-0.820706 -7.410171,1.641341 -8.230557,5.498567c-0.793964,3.857226 1.58786,7.687139 5.319402,8.507844c29.455455,6.647583 59.493088,9.957648 89.636613,9.87557c12.544344,0 25.115178,-0.574473 37.659523,-1.750801c3.758032,-0.355623 6.510382,-3.775148 6.166346,-7.632374c-0.317545,-3.884608 -3.625716,-6.72966 -7.383681,-6.374038l-0.052981,0z"/>
            <path style="fill:#8D6C9F;" id="svg_9" d="m342.698984,67.023465c-6.775014,1.531951 -13.550027,2.872365 -20.325041,4.048693c-3.758032,0.32831 -6.510382,3.747836 -6.192769,7.605061c0.317545,3.884608 3.599226,6.72966 7.330768,6.40135l1.164489,0c6.775014,-1.176328 13.894062,-2.571507 20.801392,-4.185466c3.731542,-0.848088 6.113366,-4.650619 5.319402,-8.507844c-0.820386,-3.884608 -4.499015,-6.346655 -8.230557,-5.498567l0.132316,0.136773z"/>
            <path style="fill:#8D6C9F;" id="svg_10" d="m154.348323,195.461137c-3.731542,0 -6.775014,3.14598 -6.775014,7.003206l0,14.006411c0,3.857226 3.043472,7.003206 6.775014,7.003206c3.731542,0 6.775014,-3.14598 6.775014,-7.003206l0,-14.006411c0,-3.857226 -3.043472,-7.003206 -6.775014,-7.003206z"/>
            <path style="fill:#8D6C9F;" id="svg_11" d="m188.223391,195.461137c-3.731542,0 -6.775014,3.14598 -6.775014,7.003206l0,14.006411c0,3.857226 3.043472,7.003206 6.775014,7.003206c3.731542,0 6.775014,-3.14598 6.775014,-7.003206l0,-14.006411c0,-3.857226 -3.043472,-7.003206 -6.775014,-7.003206z"/>
            <path style="fill:#8D6C9F;" id="svg_12" d="m222.098458,195.461137c-3.731542,0 -6.775014,3.14598 -6.775014,7.003206l0,14.006411c0,3.857226 3.043472,7.003206 6.775014,7.003206c3.731542,0 6.775014,-3.14598 6.775014,-7.003206l0,-14.006411c0,-3.857226 -3.043472,-7.003206 -6.775014,-7.003206z"/>
            <path style="fill:#8D6C9F;" id="svg_13" d="m255.973526,195.461137c-3.731542,0 -6.775014,3.14598 -6.775014,7.003206l0,14.006411c0,3.857226 3.043472,7.003206 6.775014,7.003206c3.731542,0 6.775014,-3.14598 6.775014,-7.003206l0,-14.006411c0,-3.857226 -3.043472,-7.003206 -6.775014,-7.003206z"/>
            <path style="fill:#8D6C9F;" id="svg_14" d="m289.848594,195.461137c-3.731542,0 -6.775014,3.14598 -6.775014,7.003206l0,14.006411c0,3.857226 3.043472,7.003206 6.775014,7.003206c3.731542,0 6.775014,-3.14598 6.775014,-7.003206l0,-14.006411c0,-3.857226 -3.043472,-7.003206 -6.775014,-7.003206z"/>
            <path style="fill:#8D6C9F;" id="svg_15" d="m323.723661,195.461137c-3.731542,0 -6.775014,3.14598 -6.775014,7.003206l0,14.006411c0,3.857226 3.043472,7.003206 6.775014,7.003206c3.731542,0 6.775014,-3.14598 6.775014,-7.003206l0,-14.006411c0,-3.857226 -3.043472,-7.003206 -6.775014,-7.003206z"/>
            <path style="fill:#8D6C9F;" id="svg_16" d="m357.598729,195.461137c-3.731542,0 -6.775014,3.14598 -6.775014,7.003206l0,14.006411c0,3.857226 3.043472,7.003206 6.775014,7.003206c3.731542,0 6.775014,-3.14598 6.775014,-7.003206l0,-14.006411c0,-3.857226 -3.043472,-7.003206 -6.775014,-7.003206z"/>
            <path style="fill:#FFFFFF;" id="svg_17" d="m164.510843,118.425874l8.389364,15.83929l15.323184,8.67193l-15.323184,8.67193l-8.389364,15.83929l-8.389364,-15.83929l-15.323184,-8.67193l15.323184,-8.67193l8.389364,-15.83929z"/>
            <path style="fill:#FFFFFF;" id="svg_18" d="m299.48185,118.425874l5.74284,10.915126l10.638872,6.045797l-10.638872,5.936267l-5.74284,10.997204l-5.848801,-10.997204l-10.559468,-5.936267l10.559468,-6.045797l5.848801,-10.915126z"/>
            <path style="fill:#FFFFFF;" id="svg_19" d="m321.341838,265.493194l3.943261,7.413524l7.251365,4.130841l-7.251365,4.076076l-3.943261,7.495601l-3.996242,-7.495601l-7.171962,-4.076076l7.171962,-4.130841l3.996242,-7.413524z"/>
        </g>
    </g>
</svg>